{"title":"Fugly (2014) - 720p - WebHD-Rip - Hindi - x264 - AC3 - 5.1 - ESu","uid":11171179,"size":1152188620,"categoryP":"video","categoryS":"hd___movies","magnet":"?xt=urn:btih:ba8ac91d3c857225a7773808d5c00e68baaf065a&amp;dn=Fugly+%282014%29+-+720p+-+WebHD-Rip+-+Hindi+-+x264+-+AC3+-+5.1+-+ESu&amp;tr=udp%3A%2F%2Ftracker.openbittorrent.com%3A80&amp;tr=udp%3A%2F%2Fopen.demonii.com%3A1337&amp;tr=udp%3A%2F%2Ftracker.coppersurfer.tk%3A6969&amp;tr=udp%3A%2F%2Fexodus.desync.com%3A6969","seeders":6,"leechers":4,"uploader":"inovai","files":6,"time":1412710561,"description":"Fugly (2014) - 720p - WebHD-Rip - Hindi - x264 - AC3 - 5.1 - ESubs - Mafiaking - TeamTNT ExClusive \n\nCover:\n &lt;a href=&quot;\nhttp://forum.primetimeshow.in/viewtopic.php?f=7&amp;t=758&quot; rel=&quot;nofollow&quot; target=&quot;_NEW&quot;&gt;\nhttp://forum.primetimeshow.in/viewtopic.php?f=7&amp;t=758&lt;/a&gt;\n\nIMDB Rating: 4.7/10.0\n\n\nGENRE: Drama | Thriller\n\nScreenshots:\n &lt;a href=&quot;\nhttp://m.primetimeshow.in/share-9978_5434234A.html&quot; rel=&quot;nofollow&quot; target=&quot;_NEW&quot;&gt;\nhttp://m.primetimeshow.in/share-9978_5434234A.html&lt;/a&gt;\n &lt;a href=&quot;\nhttp://m.primetimeshow.in/share-E69E_5434234A.html&quot; rel=&quot;nofollow&quot; target=&quot;_NEW&quot;&gt;\nhttp://m.primetimeshow.in/share-E69E_5434234A.html&lt;/a&gt;\n &lt;a href=&quot;\nhttp://m.primetimeshow.in/share-312F_5434234A.html&quot; rel=&quot;nofollow&quot; target=&quot;_NEW&quot;&gt;\nhttp://m.primetimeshow.in/share-312F_5434234A.html&lt;/a&gt;\n &lt;a href=&quot;\nhttp://m.primetimeshow.in/share-A968_5434234A.html&quot; rel=&quot;nofollow&quot; target=&quot;_NEW&quot;&gt;\nhttp://m.primetimeshow.in/share-A968_5434234A.html&lt;/a&gt;\n &lt;a href=&quot;\nhttp://m.primetimeshow.in/share-F644_5434234A.html&quot; rel=&quot;nofollow&quot; target=&quot;_NEW&quot;&gt;\nhttp://m.primetimeshow.in/share-F644_5434234A.html&lt;/a&gt;\n\n\nGeneral\nUnique ID : 249251937589577833503279573560529498212 (0xBB842D51D7100442999661FF410FB064)\nComplete name : Fugly (2014) - 720p - WebHD-Rip - Hindi - x264 - AC3 - 5.1 - ESubs - Mafiaking - TeamTNT ExClusive.mkv\nFormat : Matroska\nFormat version : Version 4 / Version 2\nFile size : 1.07 GiB\nDuration : 2h 9mn\nOverall bit rate : 1 177 Kbps\nMovie name : Fugly (2014) - 720p - WebHD-Rip - Hindi - x264 - AC3 - 5.1 - ESubs - Mafiaking - TeamTNT ExClusive\nEncoded date : UTC 2014-10-02 11:01:38\nWriting application : mkvmerge v7.0.0 ('Where We Going') 64bit built on Jun 9 2014 15:16:27\nWriting library : libebml v1.3.0 + libmatroska v1.4.1\n\n\nVideo\nID : 1\nFormat : AVC\nFormat/Info : Advanced Video Codec\nFormat profile : &lt;a class=&quot;__cf_email__&quot; href=&quot;/cdn-cgi/l/email-protection&quot; data-cfemail=&quot;571f3e303f171b637966&quot;&gt;[email&amp;#160;protected]&lt;/a&gt;&lt;script cf-hash='f9e31' type=&quot;text/javascript&quot;&gt;\n/* &lt;![CDATA[ */!function(){try{var t=&quot;currentScript&quot;in document?document.currentScript:function(){for(var t=document.getElementsByTagName(&quot;script&quot;),e=t.length;e--;)if(t[e].getAttribute(&quot;cf-hash&quot;))return t[e]}();if(t&amp;&amp;t.previousSibling){var e,r,n,i,c=t.previousSibling,a=c.getAttribute(&quot;data-cfemail&quot;);if(a){for(e=&quot;&quot;,r=parseInt(a.substr(0,2),16),n=2;a.length-n;n+=2)i=parseInt(a.substr(n,2),16)^r,e+=String.fromCharCode(i);e=document.createTextNode(e),c.parentNode.replaceChild(e,c)}}}catch(u){}}();/* ]]&gt; */&lt;/script&gt;\nFormat settings, CABAC : Yes\nFormat settings, ReFrames : 4 frames\nCodec ID : V_MPEG4/ISO/AVC\nDuration : 2h 9mn\nBit rate : 951 Kbps\nWidth : 1 280 pixels\nHeight : 536 pixels\nDisplay aspect ratio : 2.40:1\nFrame rate mode : Constant\nFrame rate : 25.000 fps\nColor space : YUV\nChroma subsampling : 4:2:0\nBit depth : 8 bits\nScan type : Progressive\nBits/(Pixel*Frame) : 0.055\nStream size : 863 MiB (79%)\nTitle : Mafiaking\nLanguage : Hindi\nDefault : Yes\nForced : No\n\n\nAudio\nID : 2\nFormat : AC-3\nFormat/Info : Audio Coding 3\nMode extension : CM (complete main)\nFormat settings, Endianness : Big\nCodec ID : A_AC3\nDuration : 2h 9mn\nBit rate mode : Constant\nBit rate : 224 Kbps\nChannel(s) : 6 channels\nChannel positions : Front: L C R, Side: L R, LFE\nSampling rate : 48.0 KHz\nBit depth : 16 bits\nCompression mode : Lossy\nStream size : 208 MiB (19%)\nTitle : Mafiaking\nLanguage : Hindi\nDefault : Yes\nForced : No\n\n\nSAMPLE WITH IN TORRENT\n\nThanks to Mafiaking - TeamTNT!!\n\nSeed n ENjoy!!","torrent":{"xt":"urn:btih:ba8ac91d3c857225a7773808d5c00e68baaf065a","amp;dn":"Fugly+%282014%29+-+720p+-+WebHD-Rip+-+Hindi+-+x264+-+AC3+-+5.1+-+ESu","amp;tr":["udp%3A%2F%2Ftracker.openbittorrent.com%3A80","udp%3A%2F%2Fopen.demonii.com%3A1337","udp%3A%2F%2Ftracker.coppersurfer.tk%3A6969","udp%3A%2F%2Fexodus.desync.com%3A6969"],"infoHash":"ba8ac91d3c857225a7773808d5c00e68baaf065a","infoHashBuffer":{"type":"Buffer","data":[186,138,201,29,60,133,114,37,167,119,56,8,213,192,14,104,186,175,6,90]},"announce":[],"urlList":[]}}